PathFileType	4	(X/Y/Z)	C:/Users/beibeiliu/ov580/test_trc\sequence.29_training_dense_left.trc
DataRate	CameraRate	NumFrames	NumMarkers	Units	OrigDataRate	OrigDataStartFrame	OrigNumFrames
120	120	12	19	mm	120	100	396
Frame#	Time	ThumbCMC			ThumbMCP			ThumbIP			ThumbTip			IndexMCP			IndexPIP			IndexTip			MiddleMCP			MiddlePIP			MiddleTip			RingMCP			RingPIP			RingTip			PinkyMCP			PinkyPIP			PinkyTip			BackHand1			BackHand2			BackHand3	
		X0	Y0	Z0	X1	Y1	Z1	X2	Y2	Z2	X3	Y3	Z3	X4	Y4	Z4	X5	Y5	Z5	X6	Y6	Z6	X7	Y7	Z7	X8	Y8	Z8	X9	Y9	Z9	X10	Y10	Z10	X11	Y11	Z11	X12	Y12	Z12	X13	Y13	Z13	X14	Y14	Z14	X15	Y15	Z15	X16	Y16	Z16	X17	Y17	Z17	X18	Y18	Z18	
99	0.825	-162.95	19.003	14.7634	-150.196	22.2422	-10.2201	-139.743	29.9862	-26.7274	-132.634	36.8953	-42.4265	-164.122	74.5088	-18.7867	-162.076	88.6273	-31.652	-160.854	107.309	-47.1775	-184.115	62.4193	-36.1679	-180.499	38.3549	-55.1157	-178.081	21.0409	-26.8462	-200.663	48.1251	-39.1569	-192.95	24.3481	-42.2492	-188.209	15.9078	-16.1635	-213.307	46.0346	-29.3111	-204.655	23.1661	-35.5138	-197.3	18.1401	-11.7671	-205.884	52.4355	14.2713	-206.522	34.8253	34.0282	-180.419	41.277	29.5854	
100	0.833333	-166.837	14.6289	21.0371	-150.456	23.7931	-5.13326	-141.714	33.8098	-20.0689	-131.455	42.1944	-35.1694	-166.109	75.7063	-8.72285	-166.164	91.829	-22.3466	-166.518	113.308	-37.4913	-184.828	66.442	-33.8182	-180.94	45.3545	-50.9286	-176.97	24.4577	-24.28	-200.102	54.0704	-31.4061	-191.993	29.9583	-39.7964	-190.593	16.4811	-12.4198	-217.618	46.3897	-28.5708	-203.324	27.1078	-33.6991	-197.724	18.561	-9.33536	-209.305	51.6514	17.694	-209.784	28.8831	38.9248	-181.896	39.2447	31.8892	
101	0.841667	-166.096	18.4795	21.3939	-156.892	24.0478	-1.46813	-146.462	37.0148	-16.9046	-134.472	45.501	-30.8234	-169.11	76.6295	-4.23997	-168.134	92.1359	-17.2415	-171.602	114.845	-32.6925	-186.381	65.7456	-25.4621	-182.569	42.541	-46.0705	-182.501	23.539	-22.8844	-200.607	53.6004	-29.837	-193.83	25.8812	-36.3192	-191.527	15.455	-11.8363	-218.371	46.0268	-26.5653	-203.634	28.3088	-32.2738	-199.801	17.2152	-6.35048	-211.778	49.1497	21.3639	-214.679	29.1843	36.8071	-184.409	41.4756	34.7732	
102	0.85	-167.024	16.5466	23.332	-154.635	25.0953	-0.560743	-146.692	35.4502	-15.2915	-135.871	45.4118	-30.0495	-170.369	78.1599	-3.10902	-170.492	92.985	-16.0132	-174.149	109.534	-28.6172	-189.924	64.2241	-26.8394	-179.852	42.9717	-44.9903	-181.719	21.2106	-20.8163	-205.422	50.6452	-27.9821	-193.076	25.985	-34.6849	-193.746	12.9358	-10.3877	-218.482	44.9053	-22.8474	-203.035	25.5329	-29.2381	-201.774	15.2925	-4.98366	-215.101	46.8706	21.2196	-213.348	26.7753	38.967	-189.853	39.0288	35.823	
103	0.858333	-171.943	13.2068	23.1284	-158.433	21.144	1.36622	-145.418	32.1104	-14.3122	-135.444	43.5229	-28.5576	-174.474	74.1647	-1.53668	-174.086	91.3116	-15.6803	-173.947	109.845	-29.0581	-189.995	61.889	-24.7217	-184.238	38.8308	-43.5795	-182.014	19.3938	-22.3186	-203.215	49.5854	-26.7298	-194.09	25.6814	-34.5998	-193.912	11.8528	-8.39645	-219.419	43.4359	-24.1325	-204.087	24.1645	-28.8252	-200.249	14.4611	-3.58996	-215.165	43.981	21.4254	-215.257	24.19	39.5352	-191.163	35.1537	36.0044	
104	0.866667	-171.454	8.73514	25.0065	-158.467	20.3984	0.783887	-144.868	30.4106	-14.5637	-133.849	43.1995	-29.0829	-173.029	71.9206	-1.05288	-174.876	89.6952	-16.7264	-176.425	108.503	-30.0985	-191.416	59.2189	-24.1321	-184.349	38.5131	-43.8476	-182.084	17.3294	-17.2319	-204.412	46.4883	-29.3806	-194.947	24.7847	-35.4204	-192.439	10.2648	-8.88361	-220.646	42.0308	-20.1468	-205.666	23.0795	-29.5883	-201.762	10.4041	-6.5469	-216.675	42.9674	23.3205	-219.479	19.2934	43.7375	-188.058	29.69	37.403	
105	0.875	-171.043	10.4779	24.0161	-157.519	16.7768	1.02021	-148.169	31.3988	-14.3799	-137.143	37.0238	-26.0261	-170.146	69.5097	-1.30366	-174.328	84.5923	-14.9246	-172.415	106.779	-29.9786	-185.742	58.2451	-22.9977	-182.658	38.1452	-44.0737	-180.391	14.5487	-19.9384	-204.28	46.5737	-23.6945	-192.252	20.5894	-33.6584	-192.352	7.58928	-6.64661	-221.695	38.4223	-23.0816	-207.117	19.7588	-30.7214	-198.364	12.4463	-7.8933	-211.572	39.6052	24.175	-215.008	17.6695	43.5348	-190.657	31.4391	34.4231	
106	0.883333	-166.062	7.16848	24.2834	-153.687	13.1321	1.28795	-145.374	29.8763	-14.9793	-135.186	41.8049	-29.9719	-170.464	71.0065	-3.27141	-171.21	86.1934	-15.8847	-172.035	103.374	-30.2376	-186.908	56.975	-27.0298	-182.468	35.6715	-43.426	-183.595	12.8153	-18.1865	-202.972	45.3317	-24.6788	-196.129	20.5484	-34.6861	-194.164	6.27421	-10.9545	-216.571	37.4468	-25.305	-208.065	16.1844	-30.2618	-201.565	8.53267	-2.57667	-213.846	39.4673	21.2801	-215.534	15.6068	42.487	-186.213	27.7536	36.8912	
107	0.891667	-168.759	6.2514	24.1864	-154.131	18.7617	-0.234421	-146.169	29.243	-14.0507	-134.268	40.966	-28.8589	-169.075	68.3235	-1.04902	-171.846	85.072	-15.9409	-173.975	102.536	-31.2252	-186.516	55.9066	-27.4935	-180.738	32.7597	-43.2144	-182.688	13.1777	-21.6312	-203.239	43.4817	-27.4406	-197.08	19.3389	-36.3968	-190.824	6.66393	-9.78894	-217.293	37.8968	-25.3866	-205.528	18.452	-29.9286	-199.289	10.7923	-5.23403	-214.969	39.388	21.4184	-215.329	15.8342	41.2264	-187.037	30.4003	37.4612	
108	0.9	-168.015	7.32191	24.7665	-156.963	18.8501	0.502547	-144.689	30.2656	-14.1508	-136.173	39.0375	-27.9671	-169.506	69.3569	-1.72933	-171.664	85.7625	-16.0096	-170.099	105.421	-31.4166	-183.673	57.3709	-27.663	-180.09	32.2807	-43.5712	-178.829	13.6111	-19.6038	-202.205	43.0757	-30.8941	-195.545	19.9606	-37.0005	-191.56	7.20882	-10.3341	-217.344	36.9256	-25.9962	-204.934	15.2942	-29.648	-196.419	9.95395	-7.85555	-211.982	40.0973	21.967	-214.109	19.5425	40.9154	-188.008	30.7983	34.2376	
109	0.908333	-168.237	10.8714	23.643	-152.203	17.7083	1.13093	-146.327	30.5009	-14.8034	-135.405	42.6403	-29.3828	-172.249	70.4626	-3.87699	-171.42	84.3797	-15.1259	-170.608	102.191	-28.7065	-186	58.6884	-23.1173	-179.969	38.1372	-47.0522	-181.707	14.8934	-27.8775	-201.917	45.9174	-29.2377	-193.156	20.3714	-37.1689	-192.006	5.94137	-17.2275	-218.455	37.5615	-27.758	-202.039	19.3236	-31.6579	-197.432	6.99459	-9.8148	-213.728	37.5088	22.6424	-214.072	18.7543	43.0448	-187.161	30.0343	37.6678	
110	0.916667	-165.809	7.27694	26.2782	-150.97	19.4976	0.509304	-145.02	32.0962	-14.508	-138.169	43.8006	-28.2323	-170.505	69.3446	-2.29561	-172.743	87.4601	-17.2513	-170.185	103.055	-27.8337	-184.958	63.022	-24.93	-182.188	47.1792	-50.1428	-177.846	16.536	-35.6012	-200.946	50.1238	-28.1249	-193.938	28.7662	-43.2285	-191.401	6.56235	-25.9715	-216.789	40.6345	-25.3746	-204.792	23.425	-36.018	-196.498	9.31379	-18.8331	-213.875	37.6794	22.1305	-215.232	18.7668	42.1514	-185.628	31.053	37.7374	
